<svg width="34" height="21" viewBox="0 0 34 21" fill="none" xmlns="http://www.w3.org/2000/svg">
<path d="M22.8576 0.5C23.3146 0.5 23.7209 0.703125 24.0256 1.00781L26.7678 3.75V13.6016C26.6662 13.4492 26.5139 13.3477 26.4123 13.1953L18.9982 7.20312L20.3186 5.98438C20.674 5.67969 20.674 5.17188 20.3693 4.86719C20.0646 4.51172 19.5568 4.51172 19.2014 4.81641L15.1896 8.52344C15.1389 8.52344 15.1389 8.52344 15.1389 8.52344C14.2756 9.28516 12.9553 9.08203 12.2951 8.37109C11.5842 7.60938 11.5842 6.33984 12.3967 5.52734L17.424 0.957031C17.7287 0.652344 18.0842 0.5 18.4904 0.5H22.8576ZM28.4436 3.80078H33.3186V16.8008H30.0686C29.1545 16.8008 28.4436 16.0391 28.4436 15.1758V3.80078ZM30.8811 15.1758C31.2873 15.1758 31.6936 14.7695 31.6936 14.3633C31.6936 13.9062 31.2873 13.5508 30.8811 13.5508C30.424 13.5508 30.0686 13.9062 30.0686 14.3633C30.0686 14.7695 30.424 15.1758 30.8811 15.1758ZM0.818556 16.75V3.80078H5.69356V15.125C5.69356 16.0391 4.93184 16.75 4.06856 16.75H0.818556ZM3.25606 13.5508C2.79902 13.5508 2.44356 13.9062 2.44356 14.3633C2.44356 14.7695 2.79902 15.1758 3.25606 15.1758C3.66231 15.1758 4.06856 14.7695 4.06856 14.3633C4.06856 13.9062 3.66231 13.5508 3.25606 13.5508ZM25.3459 14.4648C26.0568 15.0234 26.1584 16.0391 25.5998 16.75L25.1428 17.3594C24.5334 18.0703 23.5178 18.1719 22.8576 17.6133L22.5529 17.3594L20.9787 19.3398C20.3186 20.1523 19.0998 20.2539 18.2873 19.5938L17.424 18.832H17.3732C16.2561 20.2031 14.2248 20.457 12.8029 19.2891L8.23262 15.125H7.31856V3.75L10.0607 1.00781C10.3654 0.703125 10.7717 0.5 11.2287 0.5H15.4943L11.3303 4.30859C9.85762 5.67969 9.75606 8.01562 11.0764 9.48828C12.4475 10.9609 14.7326 11.1133 16.2561 9.69141L17.7795 8.32031L25.3459 14.4648Z" fill="white"/>
</svg>
