<svg width="26" height="27" viewBox="0 0 26 27" fill="none" xmlns="http://www.w3.org/2000/svg">
<path d="M25.2865 18.6328C25.6928 18.8359 25.9975 19.293 25.9975 19.8008C25.9975 19.8516 25.9975 19.9531 25.9975 20.0547L24.7787 25.3359C24.6264 25.8945 24.1693 26.25 23.6107 26.25C10.56 26.25 0.0482426 15.7383 0.0482426 2.6875C0.0482426 2.12891 0.403711 1.67188 0.962305 1.51953L6.24356 0.300781C6.34512 0.300781 6.44668 0.25 6.49746 0.25C7.00527 0.25 7.46231 0.554688 7.66543 1.01172L10.1029 6.69922C10.1537 6.85156 10.2045 7.00391 10.2045 7.15625C10.2045 7.5625 10.0014 7.91797 9.74746 8.12109L6.64981 10.6602C8.52871 14.6211 11.6771 17.7695 15.6381 19.6484L18.1771 16.5508C18.3803 16.2969 18.7357 16.0938 19.0912 16.0938C19.2943 16.0938 19.4467 16.1445 19.599 16.1953L25.2865 18.6328Z" fill="white"/>
</svg>
