<svg width="25" height="25" viewBox="0 0 25 25" fill="none" xmlns="http://www.w3.org/2000/svg">
<path d="M21.1152 0.859375C21.1152 0.859375 21.1152 0.859375 21.1152 0.8125C21.1152 0.53125 21.3965 0.296875 21.6777 0.25H23.9277C24.209 0.25 24.4902 0.53125 24.4902 0.8125V10.2344C24.4902 10.5156 24.209 10.7969 23.9277 10.7969H14.5059C14.2246 10.7969 13.9434 10.5156 13.9434 10.2344V7.98438C13.9434 7.70312 14.2246 7.42188 14.5059 7.42188H14.5527L19.2871 7.65625C17.834 5.45312 15.3027 4.04688 12.4434 4.04688C8.55273 4.04688 5.31836 6.71875 4.42773 10.3281C4.38086 10.6094 4.14648 10.75 3.91211 10.75H1.61523C1.28711 10.75 1.05273 10.5156 1.05273 10.2344C1.05273 10.1875 1.05273 10.1406 1.05273 10.0938C2.03711 4.70312 6.77148 0.625 12.4434 0.625C12.4434 0.625 12.4434 0.625 12.4902 0.625C16.0059 0.625 19.1934 2.21875 21.3027 4.75L21.1152 0.859375ZM12.4434 20.5C16.334 20.5 19.6152 17.8281 20.459 14.2188C20.5527 13.9375 20.7402 13.7969 21.0215 13.75H23.3184C23.6465 13.75 23.8809 14.0312 23.8809 14.3125C23.8809 14.3594 23.8809 14.4062 23.8809 14.4531C22.8496 19.8438 18.1152 23.875 12.4434 23.875V23.9219C8.92773 23.9219 5.74023 22.3281 3.63086 19.7969L3.81836 23.6875C3.81836 24.0156 3.53711 24.25 3.25586 24.25H1.05273C0.724609 24.25 0.490234 24.0156 0.490234 23.6875V14.3125C0.490234 14.0312 0.724609 13.75 1.05273 13.75H10.4277C10.709 13.75 10.9902 14.0312 10.9902 14.3125V16.5625C10.9902 16.8438 10.709 17.125 10.4277 17.125H10.3809L5.59961 16.8906C7.09961 19.0938 9.58398 20.5 12.4434 20.5Z" fill="white"/>
</svg>
