<svg width="25" height="24" viewBox="0 0 25 24" fill="none" xmlns="http://www.w3.org/2000/svg">
<path d="M24.1152 12.25C24.1152 18.6719 18.8652 23.875 12.4902 23.875C6.06836 23.875 0.865234 18.6719 0.865234 12.25C0.865234 5.875 6.06836 0.625 12.4902 0.625C18.8652 0.625 24.1152 5.875 24.1152 12.25ZM11.1309 18.4375L19.7559 9.8125C20.0371 9.53125 20.0371 9.01562 19.7559 8.73438L18.6777 7.70312C18.3965 7.375 17.9277 7.375 17.6465 7.70312L10.6152 14.7344L7.28711 11.4531C7.00586 11.125 6.53711 11.125 6.25586 11.4531L5.17773 12.4844C4.89648 12.7656 4.89648 13.2812 5.17773 13.5625L10.0527 18.4375C10.334 18.7188 10.8496 18.7188 11.1309 18.4375Z" fill="white"/>
</svg>
