<svg width="27" height="22" viewBox="0 0 27 22" fill="none" xmlns="http://www.w3.org/2000/svg">
<path d="M13.4902 0.25C20.9434 0.25 26.9902 6.29688 26.9902 13.75C26.9902 16.2344 26.2871 18.5781 25.1152 20.5469C24.8809 21.0156 24.3652 21.25 23.8496 21.25H3.08398C2.56836 21.25 2.05273 21.0156 1.81836 20.5469C0.646484 18.5781 -0.00976562 16.2344 -0.00976562 13.75C-0.00976562 6.29688 5.99023 0.25 13.4902 0.25ZM13.4902 3.25C12.6465 3.25 11.9902 3.95312 11.9902 4.75C11.9902 5.59375 12.6465 6.25 13.4902 6.25C13.7715 6.25 14.0527 6.15625 14.2871 5.96875L14.709 4.70312C14.7559 4.5625 14.8496 4.46875 14.8965 4.375C14.709 3.76562 14.1465 3.25 13.4902 3.25ZM4.49023 16.75C5.28711 16.75 5.99023 16.0938 5.99023 15.25C5.99023 14.4531 5.28711 13.75 4.49023 13.75C3.64648 13.75 2.99023 14.4531 2.99023 15.25C2.99023 16.0938 3.64648 16.75 4.49023 16.75ZM6.74023 9.25C7.53711 9.25 8.24023 8.59375 8.24023 7.75C8.24023 6.95312 7.53711 6.25 6.74023 6.25C5.89648 6.25 5.24023 6.95312 5.24023 7.75C5.24023 8.59375 5.89648 9.25 6.74023 9.25ZM18.2715 5.875C18.459 5.3125 18.1777 4.65625 17.5684 4.46875C16.959 4.23438 16.3496 4.5625 16.1621 5.17188L13.2559 13.7969C11.709 13.8906 10.4902 15.2031 10.4902 16.75C10.4902 17.3125 10.6309 17.8281 10.8652 18.25H16.0684C16.3027 17.8281 16.4902 17.3125 16.4902 16.75C16.4902 15.8594 16.0684 15.0625 15.4121 14.5L18.2715 5.875ZM18.9746 8.54688C19.2559 8.96875 19.6777 9.25 20.2402 9.29688C21.0371 9.29688 21.7402 8.59375 21.7402 7.79688C21.7402 6.95312 21.0371 6.29688 20.2402 6.29688C20.0527 6.29688 19.8652 6.29688 19.6777 6.39062L18.9746 8.54688ZM22.4902 16.75C23.2871 16.75 23.9902 16.0938 23.9902 15.25C23.9902 14.4531 23.2871 13.75 22.4902 13.75C21.6465 13.75 20.9902 14.4531 20.9902 15.25C20.9902 16.0938 21.6465 16.75 22.4902 16.75Z" fill="white"/>
</svg>
