<svg width="21" height="25" viewBox="0 0 21 25" fill="none" xmlns="http://www.w3.org/2000/svg">
<path d="M6.92773 14.25H5.05273C4.72461 14.25 4.49023 14.0156 4.49023 13.6875V11.8125C4.49023 11.5312 4.72461 11.25 5.05273 11.25H6.92773C7.20898 11.25 7.49023 11.5312 7.49023 11.8125V13.6875C7.49023 14.0156 7.20898 14.25 6.92773 14.25ZM11.9902 13.6875C11.9902 14.0156 11.709 14.25 11.4277 14.25H9.55273C9.22461 14.25 8.99023 14.0156 8.99023 13.6875V11.8125C8.99023 11.5312 9.22461 11.25 9.55273 11.25H11.4277C11.709 11.25 11.9902 11.5312 11.9902 11.8125V13.6875ZM16.4902 13.6875C16.4902 14.0156 16.209 14.25 15.9277 14.25H14.0527C13.7246 14.25 13.4902 14.0156 13.4902 13.6875V11.8125C13.4902 11.5312 13.7246 11.25 14.0527 11.25H15.9277C16.209 11.25 16.4902 11.5312 16.4902 11.8125V13.6875ZM11.9902 18.1875C11.9902 18.5156 11.709 18.75 11.4277 18.75H9.55273C9.22461 18.75 8.99023 18.5156 8.99023 18.1875V16.3125C8.99023 16.0312 9.22461 15.75 9.55273 15.75H11.4277C11.709 15.75 11.9902 16.0312 11.9902 16.3125V18.1875ZM7.49023 18.1875C7.49023 18.5156 7.20898 18.75 6.92773 18.75H5.05273C4.72461 18.75 4.49023 18.5156 4.49023 18.1875V16.3125C4.49023 16.0312 4.72461 15.75 5.05273 15.75H6.92773C7.20898 15.75 7.49023 16.0312 7.49023 16.3125V18.1875ZM16.4902 18.1875C16.4902 18.5156 16.209 18.75 15.9277 18.75H14.0527C13.7246 18.75 13.4902 18.5156 13.4902 18.1875V16.3125C13.4902 16.0312 13.7246 15.75 14.0527 15.75H15.9277C16.209 15.75 16.4902 16.0312 16.4902 16.3125V18.1875ZM20.9902 6V22.5C20.9902 23.7656 19.959 24.75 18.7402 24.75H2.24023C0.974609 24.75 -0.00976562 23.7656 -0.00976562 22.5V6C-0.00976562 4.78125 0.974609 3.75 2.24023 3.75H4.49023V1.3125C4.49023 1.03125 4.72461 0.75 5.05273 0.75H6.92773C7.20898 0.75 7.49023 1.03125 7.49023 1.3125V3.75H13.4902V1.3125C13.4902 1.03125 13.7246 0.75 14.0527 0.75H15.9277C16.209 0.75 16.4902 1.03125 16.4902 1.3125V3.75H18.7402C19.959 3.75 20.9902 4.78125 20.9902 6ZM18.7402 22.2188V8.25H2.24023V22.2188C2.24023 22.4062 2.33398 22.5 2.52148 22.5H18.459C18.5996 22.5 18.7402 22.4062 18.7402 22.2188Z" fill="white"/>
</svg>
