<svg width="232" height="77" viewBox="0 0 232 77" fill="none" xmlns="http://www.w3.org/2000/svg">
<path d="M88.6484 58.1557V55.9023L92.5665 54.2883C92.8324 54.1807 93.0476 54.0414 93.1932 53.8832C93.3387 53.7249 93.421 53.4717 93.421 53.1236V27.8683C93.421 27.5392 93.3387 27.2986 93.1742 27.1594C93.0096 27.0201 92.8071 26.8999 92.5665 26.8049L88.6484 25.1909V22.9375H119.626V33.027H115.923L114.714 28.3747C114.632 28.0772 114.505 27.843 114.322 27.6847C114.138 27.5265 113.923 27.4442 113.67 27.4442H101.801V38.1477H108.422C108.77 38.1477 109.011 38.059 109.144 37.8881C109.277 37.7109 109.384 37.502 109.467 37.2488L110.676 33.451H113.689V47.1484H110.676L109.467 43.376C109.372 43.0595 109.258 42.8253 109.138 42.6734C109.011 42.5214 108.77 42.4455 108.429 42.4455H101.808V53.1299C101.808 53.4781 101.896 53.7376 102.067 53.9022C102.238 54.0667 102.453 54.1997 102.707 54.2946L106.815 55.9087V58.162H88.6548L88.6484 58.1557Z" fill="white"/>
<path d="M148.907 53.2178V46.0463C148.907 45.7109 148.818 45.4703 148.648 45.3247C148.47 45.1728 148.274 45.0652 148.053 45.0019L142.805 43.3182V41.1092H161.155V43.3182L158.066 45.0019C157.857 45.1095 157.661 45.2298 157.471 45.3564C157.281 45.483 157.186 45.7109 157.186 46.0463V49.8441C157.186 51.4265 157.193 52.7621 157.212 53.8571C157.231 54.9521 157.281 55.813 157.376 56.4459C155.401 57.0979 153.085 57.6739 150.445 58.1929C147.806 58.7056 145.135 58.9651 142.444 58.9651C139.026 58.9651 135.906 58.2689 133.083 56.8764C130.26 55.4838 128 53.433 126.317 50.7176C124.633 48.0022 123.791 44.6538 123.791 40.6661C123.791 36.6784 124.62 33.5832 126.272 30.8172C127.924 28.0511 130.203 25.9117 133.096 24.4116C135.995 22.9051 139.299 22.1582 143.021 22.1582C145.407 22.1582 147.451 22.2595 149.141 22.4684C150.831 22.6772 152.306 22.9178 153.559 23.1899C154.806 23.4684 155.939 23.7153 156.952 23.9368V34.001H153.275L152.066 29.2538C152.002 29.0006 151.85 28.7917 151.616 28.6334C151.382 28.4752 151.154 28.3549 150.952 28.279C149.825 27.7916 148.502 27.3865 146.977 27.07C145.451 26.7535 144.103 26.5953 142.932 26.5953C140.982 26.5953 139.242 27.07 137.697 28.0195C136.153 28.9689 134.938 30.4121 134.051 32.3426C133.165 34.2732 132.722 36.7164 132.722 39.6787C132.722 42.641 133.127 45.1918 133.944 47.4262C134.76 49.6669 135.95 51.4139 137.526 52.6735C139.102 53.9331 141.027 54.5597 143.305 54.5597C144.002 54.5597 144.654 54.5091 145.261 54.4078C145.869 54.3065 146.47 54.1483 147.065 53.9457C147.66 53.7432 148.274 53.5026 148.907 53.2368V53.2178Z" fill="white"/>
<path d="M172.181 58.1552V55.9018L176.315 54.2878C176.58 54.1802 176.796 54.0409 176.954 53.8827C177.112 53.7244 177.194 53.4712 177.194 53.1231V27.3424H170.099C169.814 27.3424 169.586 27.4184 169.422 27.5703C169.257 27.7222 169.13 27.9564 169.054 28.2729L167.845 33.5202H164.168V22.9307H198.608V33.5202H194.905L193.696 28.2729C193.633 27.9754 193.5 27.7412 193.303 27.583C193.107 27.4247 192.898 27.3424 192.677 27.3424H185.581V53.1231C185.581 53.4712 185.67 53.7308 185.853 53.908C186.037 54.0852 186.239 54.2118 186.461 54.2878L190.594 55.9018V58.1552H172.2H172.181Z" fill="white"/>
<path d="M203.095 56.7817V46.3125H206.798L207.988 50.8002C208.063 51.0977 208.234 51.3699 208.5 51.6041C208.76 51.8446 209.057 52.0661 209.393 52.2687C209.804 52.5092 210.405 52.8067 211.197 53.1675C211.988 53.5346 212.849 53.8574 213.773 54.1549C214.697 54.4461 215.551 54.5917 216.324 54.5917C218.463 54.5917 220.223 54.1613 221.603 53.3004C222.989 52.4396 223.679 51.2559 223.679 49.7495C223.679 48.3443 223.248 47.3442 222.387 46.7619C221.527 46.1796 220.368 45.5909 218.913 45.0022C217.488 44.4452 216.083 43.9832 214.697 43.6034C213.311 43.2236 211.963 42.7869 210.652 42.2995C208.639 41.5273 207 40.3879 205.728 38.8941C204.456 37.4003 203.816 35.4318 203.816 32.9949C203.816 30.7669 204.487 28.8363 205.823 27.2033C207.158 25.5765 208.899 24.3169 211.045 23.4308C213.19 22.5446 215.469 22.1016 217.893 22.1016C219.267 22.1016 220.698 22.1839 222.179 22.3484C223.66 22.513 225.078 22.7219 226.438 22.9624C227.799 23.2093 228.989 23.4434 229.996 23.665V33.8494H226.293L225.084 29.5073C225.008 29.2667 224.85 29.0389 224.622 28.8173C224.394 28.5958 224.172 28.4249 223.97 28.292C223.729 28.1527 223.286 27.9375 222.641 27.6527C221.989 27.3678 221.255 27.1083 220.432 26.8805C219.609 26.6526 218.811 26.5387 218.033 26.5387C215.957 26.5387 214.406 26.9754 213.368 27.8426C212.33 28.7161 211.811 29.6655 211.811 30.6909C211.811 31.7986 212.171 32.7354 212.893 33.4949C213.615 34.2545 214.963 34.9571 216.938 35.609C218.248 36.0521 219.546 36.4572 220.83 36.8307C222.109 37.2041 223.514 37.6915 225.033 38.2928C226.299 38.7865 227.458 39.4005 228.508 40.1474C229.559 40.888 230.407 41.8374 231.046 42.9831C231.686 44.1288 232.009 45.5656 232.009 47.2936C232.009 49.3824 231.433 51.3192 230.274 53.0979C229.116 54.8765 227.369 56.3133 225.027 57.3957C222.685 58.4781 219.716 59.0224 216.127 59.0224C214.956 59.0224 213.608 58.9085 212.083 58.6806C210.557 58.4528 209.007 58.1679 207.431 57.8261C205.854 57.4843 204.411 57.1425 203.101 56.7944L203.095 56.7817Z" fill="white"/>
<path d="M67.9073 18.3608C66.1857 17.5633 64.4261 16.8354 62.6348 16.1708C62.9069 14.3035 63.1158 12.411 63.2487 10.4994C63.369 8.7904 63.426 7.06873 63.426 5.32807C63.426 5.1192 63.426 4.91032 63.426 4.70777C62.1284 4.28368 60.8182 3.89125 59.4953 3.52413C58.9509 3.37222 58.3939 3.22663 57.8433 3.08738C56.59 2.7709 55.3241 2.47974 54.0455 2.22022C53.4505 2.09996 52.8491 1.97969 52.2478 1.87209C51.0325 1.65055 49.8109 1.45433 48.5766 1.28976C47.9373 1.20115 47.2854 1.11886 46.6397 1.04923C45.4561 0.916311 44.2598 0.802374 43.0635 0.720089C42.3925 0.669451 41.7216 0.631482 41.0443 0.599833C39.8734 0.542867 38.6961 0.511212 37.5124 0.504883C37.3352 0.504883 37.1579 0.504883 36.9807 0.504883C36.8161 0.504883 36.6453 0.504883 36.4807 0.504883C36.1389 0.504883 35.8034 0.504886 35.4679 0.517545C34.2842 0.536534 33.1006 0.580836 31.9233 0.650462C31.2523 0.68844 30.5815 0.739078 29.9168 0.789715C28.7079 0.89099 27.5115 1.01126 26.3216 1.16317C25.6823 1.23913 25.043 1.32774 24.41 1.42268C23.1694 1.60624 21.9351 1.81512 20.7135 2.05565C20.1185 2.16958 19.5298 2.28984 18.9412 2.42277C17.6499 2.70127 16.3777 3.01142 15.1118 3.34056C14.5674 3.48615 14.0294 3.63806 13.485 3.78997C12.1558 4.16975 10.8392 4.58118 9.54166 5.03059C9.54166 5.13186 9.54166 5.2268 9.54166 5.32807C9.54166 7.18266 9.61133 9.0246 9.74425 10.8412C9.8835 12.7591 10.0986 14.6517 10.3835 16.5252C8.59851 17.2152 6.84524 17.9684 5.12991 18.7913C3.37659 19.6268 1.66126 20.5319 -0.00976562 21.5003C0.306717 23.1524 0.667495 24.7791 1.08525 26.3932C1.14855 26.659 1.21814 26.9185 1.28777 27.1844C1.69919 28.7541 2.16129 30.2985 2.66133 31.8303C2.75627 32.1215 2.85119 32.4063 2.94613 32.6912C3.44617 34.166 3.99057 35.6281 4.5729 37.0713C4.69316 37.3878 4.82607 37.6979 4.95899 38.0081C5.54132 39.4069 6.16166 40.7868 6.81362 42.1477C6.97186 42.4768 7.13011 42.8059 7.29468 43.1351C7.95929 44.4643 8.64917 45.7745 9.38341 47.0658C9.56697 47.3949 9.75687 47.7241 9.94676 48.0532C10.6937 49.3318 11.4722 50.5914 12.2761 51.8257C12.4787 52.1422 12.6875 52.4523 12.8964 52.7625C13.7319 54.0031 14.5991 55.2247 15.4979 56.4147C15.7068 56.6995 15.922 56.978 16.1372 57.2565C17.074 58.4655 18.0424 59.6555 19.0425 60.8138C19.2513 61.0607 19.4602 61.3012 19.6754 61.5417C20.7262 62.7317 21.8022 63.89 22.9162 65.0167C23.1124 65.2192 23.3086 65.4218 23.5175 65.618C24.6822 66.7763 25.8848 67.9093 27.1128 68.998C28.5749 70.2956 30.0877 71.5426 31.6385 72.7389C33.2082 73.9478 36.4807 76.2075 36.487 76.2075C38.1454 75.1062 39.7657 73.9478 41.3355 72.7389C42.8862 71.5426 44.3927 70.3019 45.8612 68.998C47.2284 67.7891 48.5577 66.5295 49.8489 65.2319C49.9249 65.1623 49.9945 65.0927 50.0641 65.0167C51.311 63.7571 52.5136 62.4532 53.6783 61.1113C53.7669 61.01 53.8492 60.9151 53.9378 60.8138C55.0645 59.5099 56.1532 58.168 57.1913 56.8008C57.2862 56.6742 57.3875 56.5413 57.4824 56.4147C58.4952 55.0665 59.4763 53.6929 60.4067 52.2814C60.508 52.1295 60.6093 51.9776 60.7105 51.8257C61.622 50.4332 62.4955 49.009 63.3247 47.5595C63.4196 47.3949 63.5083 47.2367 63.6032 47.0658C64.4261 45.61 65.2046 44.1352 65.9388 42.6287C66.0148 42.4705 66.0971 42.3122 66.173 42.1477C66.9073 40.6222 67.5972 39.0714 68.2428 37.4954C68.2998 37.3561 68.3568 37.2105 68.4137 37.0713C69.0657 35.4635 69.667 33.8305 70.2113 32.1785C70.2493 32.0645 70.2873 31.9506 70.3253 31.8367C70.8823 30.1403 71.3824 28.425 71.8318 26.6843C71.8571 26.5894 71.8824 26.5008 71.9014 26.4121C72.3571 24.6335 72.7559 22.8359 73.0914 21.0129C71.414 20.0698 69.6923 19.19 67.9263 18.3798L67.9073 18.3608ZM18.9412 8.10046C19.5108 7.96754 20.0869 7.84095 20.6629 7.72702C21.9541 7.45484 23.2643 7.21431 24.5809 7.01176C25.1126 6.92948 25.6506 6.8472 26.1823 6.77757C27.4926 6.60034 28.8155 6.45476 30.1447 6.34082C30.6637 6.29651 31.1891 6.25854 31.7144 6.22689C33.031 6.13828 34.3603 6.08131 35.6958 6.06232C35.949 6.06232 36.2085 6.05598 36.468 6.05598C36.6326 6.05598 36.8034 6.05598 36.968 6.05598C37.063 6.05598 37.1643 6.05598 37.2592 6.05598C38.5948 6.05598 39.924 6.09397 41.2405 6.16993C41.7659 6.19525 42.285 6.2269 42.8103 6.27121C44.1396 6.36615 45.4687 6.49273 46.779 6.6573C47.317 6.7206 47.8424 6.79023 48.3804 6.87251C49.697 7.0624 51.0072 7.28395 52.3048 7.53714C52.8682 7.64474 53.4378 7.765 54.0011 7.88526C55.2797 8.16376 56.5456 8.47392 57.7989 8.81572C57.704 10.7083 57.5331 12.5819 57.2862 14.4301C56.571 14.2276 55.8557 14.0377 55.1342 13.8541C54.0518 13.5819 52.9631 13.3288 51.8617 13.1072C50.9439 12.9173 50.0198 12.7464 49.0956 12.5945C48.1968 12.4489 47.298 12.316 46.3865 12.2021C45.3738 12.0755 44.3484 11.9616 43.323 11.8793C42.5065 11.8096 41.6836 11.7527 40.8608 11.7084C39.8037 11.6514 38.7404 11.6198 37.677 11.6071C37.4428 11.6071 37.2085 11.6071 36.968 11.6071C36.8034 11.6071 36.6326 11.6071 36.468 11.6071C36.0692 11.6071 35.6768 11.6134 35.278 11.6261C34.2147 11.6514 33.1513 11.6957 32.1005 11.7653C31.2714 11.816 30.4421 11.8919 29.6193 11.9679C28.6002 12.0692 27.5875 12.1894 26.5811 12.3287C25.657 12.4553 24.7392 12.6072 23.8214 12.7718C22.9099 12.93 22.0111 13.1136 21.1123 13.3098C21.3338 15.1011 21.6376 16.8734 22.0174 18.614C22.03 18.671 22.0427 18.728 22.0554 18.7849C22.4542 20.6079 22.9289 22.3928 23.4796 24.1525C23.7201 24.931 23.9796 25.6969 24.2518 26.4628C24.6062 27.4565 24.986 28.444 25.3911 29.4187C25.8342 30.4948 26.3153 31.5581 26.8153 32.6025C27.1381 33.2735 27.4799 33.9381 27.8217 34.5964C28.4167 35.7294 29.0496 36.8371 29.7079 37.9258C30.075 38.5398 30.4612 39.1411 30.8536 39.7361C31.5182 40.7488 32.2082 41.7426 32.9298 42.7173C33.4868 43.4706 34.0628 44.2174 34.6577 44.9454C35.2464 45.6669 35.8477 46.3822 36.468 47.0785H36.4743C37.1073 46.3759 37.7212 45.648 38.3226 44.9074C38.9049 44.1921 39.4683 43.4642 40.0189 42.7173C40.7658 41.7046 41.4874 40.6792 42.171 39.6221C42.5382 39.0588 42.8926 38.4954 43.2407 37.9258C43.9306 36.7864 44.5889 35.6281 45.2029 34.4445C45.5194 33.8368 45.8359 33.2165 46.1334 32.5962C46.6651 31.4949 47.1651 30.3745 47.6335 29.2415C48.8108 29.463 49.9692 29.7162 51.1212 30.0074C51.7795 30.1783 52.4377 30.3555 53.0833 30.5454C52.9188 30.9632 52.7478 31.3873 52.5706 31.7987C52.0199 33.1089 51.4313 34.3938 50.8047 35.6598C50.5452 36.1851 50.2793 36.7042 50.0071 37.2232C49.3932 38.3942 48.7412 39.5398 48.0576 40.6728C47.7474 41.1855 47.4373 41.6856 47.1145 42.192C46.3676 43.363 45.5827 44.5086 44.7662 45.6226C44.4813 46.0151 44.1902 46.4075 43.8927 46.7936C42.8863 48.1102 41.8419 49.3888 40.7405 50.6231C40.6076 50.775 40.4747 50.9206 40.3418 51.0661C39.1075 52.4397 37.8162 53.7689 36.4743 55.0348C36.4743 55.0348 36.4743 55.0348 36.468 55.0412V55.0285C35.1261 53.7626 33.8349 52.4397 32.6006 51.0661C32.4993 50.9522 32.3981 50.8446 32.2968 50.7243C31.1638 49.4521 30.0814 48.1355 29.0497 46.7873C28.8028 46.4581 28.5496 46.129 28.3091 45.7935C27.4483 44.6162 26.619 43.4199 25.8278 42.1856C25.5557 41.7552 25.2835 41.3248 25.0177 40.8817C24.2898 39.6854 23.5935 38.4638 22.9352 37.2169C22.7074 36.7801 22.4794 36.337 22.2579 35.894C21.587 34.5521 20.954 33.1786 20.3717 31.786C20.2324 31.4569 20.0995 31.1277 19.9666 30.7923C19.2893 29.1086 18.6753 27.3932 18.1373 25.6463C18.1246 25.6209 18.1184 25.5893 18.112 25.5577C17.5677 23.798 17.093 22.013 16.6879 20.1901C16.5233 19.4495 16.3714 18.709 16.2321 17.9621C16.0296 16.8797 15.8523 15.791 15.7067 14.6896C15.4535 12.8414 15.27 10.9678 15.1687 9.0689C16.4157 8.71444 17.6689 8.39162 18.9348 8.09413L18.9412 8.10046ZM36.968 28.2224H37.0377C38.6897 28.2224 40.3228 28.2984 41.9368 28.4376C41.2532 29.9821 40.5063 31.4949 39.6961 32.9633C39.5379 33.2545 39.3796 33.5393 39.2151 33.8242C38.3606 35.3053 37.4491 36.7421 36.4743 38.1347H36.468V38.122C35.5059 36.7485 34.6007 35.3243 33.7589 33.8685C33.588 33.571 33.4171 33.2672 33.2525 32.9633C32.455 31.5202 31.7207 30.039 31.0498 28.5262C32.6512 28.3617 34.2716 28.2667 35.9047 28.2351C36.0882 28.2351 36.2718 28.2287 36.4617 28.2287C36.6263 28.2287 36.7972 28.2287 36.9617 28.2287L36.968 28.2224ZM36.468 27.0768V27.0388C36.468 27.0388 36.468 27.0514 36.4743 27.0578C36.4743 27.0578 36.4743 27.0704 36.468 27.0768ZM65.4514 28.7858C65.3881 28.9883 65.3249 29.1909 65.2553 29.3934C64.7362 31.0391 64.1602 32.6595 63.5336 34.2546C63.483 34.3875 63.4323 34.5268 63.3754 34.6597C62.7361 36.2801 62.0398 37.8688 61.2992 39.4322C61.2486 39.5398 61.198 39.6475 61.1473 39.7551C60.3941 41.3248 59.5902 42.8692 58.7357 44.3757C58.685 44.477 58.6281 44.5719 58.5711 44.6669C57.7103 46.1796 56.7988 47.6608 55.8431 49.1039C55.7798 49.2052 55.7164 49.3002 55.6468 49.3951C54.6847 50.8383 53.672 52.2498 52.615 53.6296C52.5327 53.7372 52.4504 53.8512 52.3681 53.9525C51.311 55.3133 50.216 56.6426 49.0704 57.9338C48.9438 58.0794 48.8171 58.2186 48.6905 58.3642C47.5639 59.6175 46.3992 60.8391 45.1966 62.0228C44.9687 62.2506 44.7345 62.4785 44.5003 62.7C43.3673 63.7887 42.2027 64.8395 41.0001 65.8585C39.5379 67.1055 38.0315 68.2954 36.4807 69.4348C36.4807 69.4348 36.4807 69.4348 36.4743 69.4348V69.4221C34.9236 68.2828 33.4171 67.0928 31.9613 65.8522C30.8536 64.9091 29.7776 63.9407 28.7269 62.9406C28.4041 62.6367 28.0876 62.3266 27.7647 62.0101C26.6571 60.9277 25.5936 59.8137 24.5556 58.6681C24.334 58.4212 24.1125 58.1743 23.891 57.9275C22.8466 56.7502 21.8402 55.5412 20.8654 54.3006C20.6945 54.079 20.5173 53.8512 20.3401 53.6233C19.378 52.3701 18.4538 51.0851 17.5677 49.7749C17.4158 49.5533 17.2638 49.3255 17.1182 49.1039C16.2447 47.7874 15.4156 46.4455 14.6244 45.072C14.4915 44.8441 14.3522 44.6099 14.2256 44.3757C13.4471 43.0022 12.7128 41.6033 12.0166 40.1791C11.8963 39.9323 11.776 39.6854 11.6557 39.4386C10.9785 38.0144 10.3392 36.5649 9.75051 35.0964C9.63657 34.8242 9.52903 34.5458 9.42143 34.2609C8.85176 32.8051 8.32007 31.3303 7.83902 29.8302C7.72508 29.4884 7.61747 29.1402 7.50986 28.7921C7.06679 27.3426 6.65533 25.8741 6.29454 24.393C7.9719 23.5511 9.68724 22.7726 11.4406 22.07C11.6304 22.8802 11.8267 23.6841 12.0419 24.4816C12.3141 25.4817 12.5989 26.4754 12.9091 27.4629C13.2319 28.5009 13.58 29.5327 13.9534 30.5454C14.2129 31.267 14.4851 31.9822 14.77 32.6912C15.213 33.8115 15.6878 34.9192 16.1941 36.0142C16.46 36.6029 16.7385 37.1852 17.0233 37.7612C17.574 38.8942 18.1564 40.0019 18.764 41.0969C19.0552 41.6286 19.3526 42.154 19.6564 42.673C20.2957 43.7617 20.9604 44.8378 21.6566 45.8885C21.9984 46.4075 22.3466 46.9265 22.701 47.4392C23.4036 48.452 24.1315 49.4394 24.8784 50.4142C25.3151 50.9775 25.7582 51.5409 26.2076 52.0915C26.9292 52.9714 27.6634 53.8385 28.423 54.6804C29.037 55.3703 29.6637 56.0413 30.3093 56.7059C30.9549 57.3768 31.6195 58.0351 32.2905 58.6807C33.3159 59.6681 34.3666 60.6239 35.449 61.5417C35.7908 61.8329 36.1326 62.124 36.4807 62.4089C36.4807 62.4089 36.4807 62.4089 36.487 62.4089C36.8541 62.105 37.2149 61.8012 37.5694 61.4911C38.6328 60.5796 39.6708 59.6428 40.6772 58.6681C41.4115 57.9655 42.133 57.2502 42.8293 56.516C43.4179 55.9083 43.9877 55.288 44.551 54.6614C45.3802 53.7373 46.184 52.7941 46.9625 51.832C47.3423 51.3636 47.7221 50.8826 48.0956 50.4015C48.9184 49.3382 49.7096 48.2494 50.4692 47.1418C50.7604 46.724 51.0388 46.3062 51.3174 45.8822C52.0769 44.7238 52.8049 43.5465 53.5011 42.3502C53.748 41.9325 53.9821 41.5147 54.2163 41.0969C54.8809 39.8943 55.5202 38.6664 56.1215 37.4258C56.3431 36.9574 56.5646 36.489 56.7862 36.0142C57.3369 34.8053 57.8559 33.5836 58.3433 32.343C58.5774 31.748 58.8054 31.1467 59.0206 30.5454C59.432 29.4124 59.8181 28.2667 60.1725 27.1084C58.4635 26.4248 56.7103 25.8172 54.9253 25.2855C54.7734 25.2412 54.6214 25.1969 54.4695 25.1525C52.8491 24.6842 51.2098 24.2791 49.5388 23.9436C48.7222 23.779 47.8994 23.6271 47.0702 23.4942C46.0511 23.3296 45.0257 23.1904 43.994 23.0764C42.8926 22.9562 41.7849 22.8549 40.6709 22.7916C39.8734 22.7473 39.0695 22.7156 38.2656 22.6966C37.8352 22.6903 37.4048 22.684 36.9743 22.684C36.8098 22.684 36.6389 22.684 36.4743 22.684C35.8857 22.684 35.297 22.703 34.7084 22.722C33.8918 22.7536 33.0753 22.7979 32.2651 22.8549C31.1701 22.9372 30.0814 23.0448 28.999 23.1777C28.5496 21.8042 28.1508 20.4116 27.8027 18.9938C27.7014 18.5887 27.6065 18.1836 27.5179 17.7785C27.7584 17.7469 28.0053 17.7089 28.2458 17.6836C29.8472 17.481 31.4613 17.3291 33.088 17.2405C33.4425 17.2152 33.8032 17.2025 34.164 17.1899C34.9299 17.1582 35.6958 17.1392 36.468 17.1329C36.6326 17.1329 36.8034 17.1329 36.968 17.1329C37.5757 17.1329 38.177 17.1392 38.7847 17.1582C39.1518 17.1645 39.5126 17.1772 39.8797 17.1962C41.4938 17.2658 43.0951 17.3861 44.6776 17.5633C44.9434 17.5949 45.2029 17.6266 45.4688 17.6582C47.317 17.8861 49.1336 18.1836 50.9313 18.5634C50.9313 18.5634 50.9439 18.5634 50.9503 18.5634C52.7732 18.9368 54.5708 19.3926 56.3368 19.9116C56.9128 20.0825 57.4824 20.2534 58.0521 20.4433C59.2611 20.8357 60.4447 21.2598 61.622 21.7092C63.3817 22.3865 65.1034 23.1397 66.7934 23.9562C66.401 25.583 65.9642 27.197 65.4704 28.7858H65.4514Z" fill="white"/>
</svg>
