<svg width="233" height="77" viewBox="0 0 233 77" fill="none" xmlns="http://www.w3.org/2000/svg">
<path d="M89.0303 58.2992V56.0459L92.9484 54.4318C93.2142 54.3242 93.4294 54.185 93.575 54.0267C93.7206 53.8685 93.8029 53.6153 93.8029 53.2672V28.0119C93.8029 27.6827 93.7206 27.4422 93.556 27.3029C93.3914 27.1637 93.1889 27.0434 92.9484 26.9485L89.0303 25.3344V23.0811H120.008V33.1705H116.305L115.096 28.5182C115.014 28.2207 114.887 27.9865 114.703 27.8283C114.52 27.6701 114.305 27.5878 114.051 27.5878H102.183V38.2912H108.804C109.152 38.2912 109.393 38.2026 109.526 38.0317C109.659 37.8545 109.766 37.6456 109.849 37.3924L111.057 33.5946H114.07V47.292H111.057L109.849 43.5195C109.754 43.203 109.64 42.9688 109.519 42.8169C109.393 42.665 109.152 42.589 108.81 42.589H102.19V53.2735C102.19 53.6216 102.278 53.8811 102.449 54.0457C102.62 54.2103 102.835 54.3432 103.088 54.4382L107.196 56.0522V58.3056H89.0366L89.0303 58.2992Z" fill="black"/>
<path d="M149.289 53.3619V46.1904C149.289 45.8549 149.2 45.6144 149.029 45.4688C148.852 45.3169 148.656 45.2093 148.434 45.146L143.187 43.4623V41.2532H161.537V43.4623L158.448 45.146C158.239 45.2536 158.043 45.3738 157.853 45.5004C157.663 45.627 157.568 45.8549 157.568 46.1904V49.9882C157.568 51.5706 157.574 52.9061 157.593 54.0012C157.612 55.0962 157.663 55.957 157.758 56.59C155.783 57.2419 153.466 57.8179 150.827 58.337C148.188 58.8497 145.516 59.1092 142.826 59.1092C139.408 59.1092 136.288 58.4129 133.465 57.0204C130.642 55.6279 128.382 53.5771 126.698 50.8617C125.015 48.1462 124.173 44.7978 124.173 40.8102C124.173 36.8225 125.002 33.7273 126.654 30.9612C128.306 28.1952 130.585 26.0557 133.477 24.5556C136.376 23.0491 139.681 22.3022 143.402 22.3022C145.789 22.3022 147.833 22.4035 149.523 22.6124C151.213 22.8213 152.688 23.0618 153.941 23.334C155.188 23.6125 156.321 23.8593 157.334 24.0809V34.145H153.656L152.447 29.3978C152.384 29.1446 152.232 28.9357 151.998 28.7775C151.764 28.6192 151.536 28.499 151.333 28.423C150.207 27.9356 148.884 27.5305 147.358 27.2141C145.833 26.8976 144.485 26.7393 143.314 26.7393C141.364 26.7393 139.624 27.2141 138.079 28.1635C136.535 29.113 135.319 30.5561 134.433 32.4867C133.547 34.4172 133.104 36.8605 133.104 39.8227C133.104 42.785 133.509 45.3359 134.326 47.5702C135.142 49.8109 136.332 51.5579 137.908 52.8175C139.484 54.0771 141.408 54.7037 143.687 54.7037C144.383 54.7037 145.035 54.6531 145.643 54.5518C146.251 54.4506 146.852 54.2923 147.447 54.0898C148.042 53.8872 148.656 53.6467 149.289 53.3808V53.3619Z" fill="black"/>
<path d="M172.563 58.2987V56.0454L176.696 54.4313C176.962 54.3237 177.177 54.1845 177.336 54.0262C177.494 53.868 177.576 53.6148 177.576 53.2667V27.486H170.481C170.196 27.486 169.968 27.562 169.803 27.7139C169.639 27.8658 169.512 28.1 169.436 28.4164L168.227 33.6637H164.55V23.0742H198.989V33.6637H195.287L194.078 28.4164C194.014 28.119 193.881 27.8848 193.685 27.7265C193.489 27.5683 193.28 27.486 193.059 27.486H185.963V53.2667C185.963 53.6148 186.052 53.8743 186.235 54.0515C186.419 54.2288 186.621 54.3554 186.843 54.4313L190.976 56.0454V58.2987H172.582H172.563Z" fill="black"/>
<path d="M203.477 56.9253V46.456H207.179L208.369 50.9438C208.445 51.2412 208.616 51.5134 208.882 51.7476C209.142 51.9882 209.439 52.2097 209.775 52.4122C210.186 52.6528 210.787 52.9503 211.578 53.3111C212.37 53.6782 213.231 54.001 214.155 54.2985C215.079 54.5896 215.933 54.7352 216.706 54.7352C218.845 54.7352 220.605 54.3048 221.984 53.444C223.371 52.5831 224.061 51.3995 224.061 49.893C224.061 48.4878 223.63 47.4878 222.769 46.9055C221.908 46.3231 220.75 45.7344 219.294 45.1458C217.87 44.5888 216.465 44.1267 215.079 43.7469C213.693 43.3672 212.344 42.9304 211.034 42.443C209.021 41.6708 207.382 40.5315 206.11 39.0377C204.837 37.5439 204.198 35.5754 204.198 33.1385C204.198 30.9104 204.869 28.9799 206.205 27.3468C207.54 25.7201 209.281 24.4605 211.427 23.5743C213.572 22.6882 215.851 22.2451 218.275 22.2451C219.649 22.2451 221.079 22.3274 222.56 22.492C224.042 22.6566 225.459 22.8654 226.82 23.106C228.181 23.3528 229.371 23.587 230.378 23.8085V33.9929H226.675L225.466 29.6508C225.39 29.4103 225.232 29.1824 225.004 28.9609C224.776 28.7393 224.554 28.5684 224.352 28.4355C224.111 28.2963 223.668 28.0811 223.023 27.7962C222.371 27.5114 221.636 27.2519 220.813 27.024C219.991 26.7961 219.193 26.6822 218.415 26.6822C216.338 26.6822 214.788 27.119 213.75 27.9861C212.712 28.8596 212.193 29.8091 212.193 30.8345C212.193 31.9421 212.553 32.8789 213.275 33.6385C213.996 34.398 215.345 35.1006 217.32 35.7526C218.63 36.1957 219.927 36.6008 221.212 36.9742C222.491 37.3477 223.896 37.8351 225.415 38.4364C226.681 38.9301 227.839 39.5441 228.89 40.291C229.941 41.0315 230.789 41.981 231.428 43.1266C232.068 44.2723 232.39 45.7091 232.39 47.4371C232.39 49.5259 231.814 51.4628 230.656 53.2414C229.498 55.0201 227.751 56.4569 225.409 57.5393C223.067 58.6216 220.098 59.166 216.509 59.166C215.338 59.166 213.99 59.052 212.465 58.8242C210.939 58.5963 209.388 58.3115 207.812 57.9697C206.236 57.6279 204.793 57.2861 203.483 56.9379L203.477 56.9253Z" fill="black"/>
<path d="M68.2892 18.5044C66.5675 17.7068 64.8079 16.9789 63.0166 16.3143C63.2888 14.4471 63.4976 12.5545 63.6306 10.643C63.7508 8.93396 63.8078 7.21228 63.8078 5.47163C63.8078 5.26275 63.8078 5.05387 63.8078 4.85133C62.5102 4.42724 61.2 4.0348 59.8771 3.66768C59.3328 3.51577 58.7758 3.37019 58.2251 3.23094C56.9718 2.91445 55.7059 2.62329 54.4273 2.36378C53.8323 2.24351 53.2309 2.12325 52.6296 2.01564C51.4143 1.79411 50.1928 1.59789 48.9585 1.43332C48.3192 1.3447 47.6672 1.26241 47.0216 1.19279C45.8379 1.05987 44.6416 0.945929 43.4453 0.863643C42.7744 0.813006 42.1035 0.775036 41.4262 0.743388C40.2552 0.686421 39.0779 0.654767 37.8943 0.648438C37.717 0.648438 37.5397 0.648438 37.3625 0.648438C37.1979 0.648438 37.0271 0.648438 36.8625 0.648438C36.5207 0.648438 36.1852 0.64844 35.8497 0.6611C34.6661 0.680088 33.4824 0.724391 32.3051 0.794017C31.6342 0.831995 30.9633 0.882633 30.2987 0.93327C29.0897 1.03454 27.8934 1.15482 26.7034 1.30673C26.0641 1.38268 25.4248 1.47129 24.7918 1.56624C23.5512 1.74979 22.317 1.95867 21.0953 2.1992C20.5004 2.31313 19.9117 2.4334 19.323 2.56632C18.0318 2.84483 16.7595 3.15498 15.4936 3.48412C14.9493 3.6297 14.4112 3.78162 13.8669 3.93353C12.5376 4.31331 11.2211 4.72474 9.92349 5.17414C9.92349 5.27542 9.92349 5.37035 9.92349 5.47163C9.92349 7.32622 9.99316 9.16816 10.1261 10.9848C10.2653 12.9027 10.4805 14.7952 10.7653 16.6688C8.98035 17.3587 7.22708 18.112 5.51174 18.9348C3.75843 19.7703 2.0431 20.6755 0.37207 21.6439C0.688553 23.2959 1.04933 24.9226 1.46709 26.5367C1.53038 26.8026 1.59998 27.0621 1.6696 27.3279C2.08103 28.8977 2.54312 30.4421 3.04316 31.9739C3.13811 32.265 3.23302 32.5499 3.32797 32.8347C3.82801 34.3095 4.3724 35.7717 4.95473 37.2148C5.07499 37.5313 5.20791 37.8415 5.34083 38.1516C5.92316 39.5505 6.5435 40.9303 7.19545 42.2912C7.35369 42.6204 7.51194 42.9495 7.67651 43.2786C8.34113 44.6079 9.03101 45.9181 9.76525 47.2094C9.94881 47.5385 10.1387 47.8676 10.3286 48.1968C11.0755 49.4754 11.8541 50.735 12.6579 51.9693C12.8605 52.2857 13.0694 52.5959 13.2782 52.906C14.1138 54.1466 14.9809 55.3683 15.8797 56.5583C16.0886 56.8431 16.3038 57.1216 16.519 57.4001C17.4558 58.6091 18.4242 59.799 19.4243 60.9574C19.6332 61.2042 19.8421 61.4447 20.0573 61.6853C21.108 62.8752 22.184 64.0336 23.298 65.1603C23.4943 65.3628 23.6905 65.5653 23.8993 65.7616C25.064 66.9199 26.2667 68.0529 27.4946 69.1416C28.9568 70.4392 30.4696 71.6861 32.0203 72.8824C33.5901 74.0914 36.8625 76.3511 36.8689 76.3511C38.5272 75.2497 40.1476 74.0914 41.7173 72.8824C43.2681 71.6861 44.7746 70.4455 46.243 69.1416C47.6102 67.9326 48.9395 66.673 50.2307 65.3755C50.3067 65.3058 50.3763 65.2362 50.4459 65.1603C51.6929 63.9007 52.8955 62.5967 54.0601 61.2548C54.1488 61.1536 54.2311 61.0586 54.3197 60.9574C55.4464 59.6534 56.5351 58.3116 57.5731 56.9444C57.6681 56.8178 57.7693 56.6849 57.8643 56.5583C58.877 55.21 59.8581 53.8365 60.7886 52.425C60.8898 52.2731 60.9911 52.1212 61.0924 51.9693C62.0038 50.5767 62.8773 49.1526 63.7065 47.7031C63.8015 47.5385 63.8901 47.3803 63.9851 47.2094C64.8079 45.7535 65.5864 44.2787 66.3207 42.7723C66.3966 42.614 66.4789 42.4558 66.5549 42.2912C67.2891 40.7658 67.979 39.215 68.6247 37.6389C68.6816 37.4997 68.7386 37.3541 68.7956 37.2148C69.4475 35.6071 70.0488 33.9741 70.5932 32.322C70.6312 32.2081 70.6692 32.0941 70.7071 31.9802C71.2642 30.2839 71.7642 28.5685 72.2136 26.8279C72.2389 26.7329 72.2642 26.6443 72.2832 26.5557C72.739 24.7771 73.1377 22.9794 73.4732 21.1565C71.7958 20.2134 70.0742 19.3336 68.3082 18.5234L68.2892 18.5044ZM19.323 8.24402C19.8927 8.1111 20.4687 7.98451 21.0447 7.87057C22.336 7.5984 23.6462 7.35787 24.9627 7.15532C25.4944 7.07303 26.0325 6.99075 26.5642 6.92112C27.8744 6.74389 29.1973 6.59831 30.5265 6.48438C31.0456 6.44007 31.5709 6.4021 32.0963 6.37045C33.4128 6.28183 34.7421 6.22486 36.0777 6.20587C36.3308 6.20587 36.5903 6.19953 36.8498 6.19953C37.0144 6.19953 37.1853 6.19953 37.3498 6.19953C37.4448 6.19953 37.5461 6.19953 37.6411 6.19953C38.9766 6.19953 40.3058 6.23753 41.6224 6.31348C42.1477 6.3388 42.6668 6.37045 43.1922 6.41476C44.5214 6.5097 45.8506 6.63629 47.1608 6.80086C47.6988 6.86416 48.2242 6.93378 48.7622 7.01607C50.0788 7.20596 51.3891 7.4275 52.6866 7.68069C53.25 7.78829 53.8196 7.90855 54.383 8.02881C55.6615 8.30732 56.9275 8.61747 58.1807 8.95927C58.0858 10.8518 57.9149 12.7254 57.6681 14.5737C56.9528 14.3711 56.2376 14.1812 55.516 13.9977C54.4336 13.7255 53.3449 13.4723 52.2435 13.2508C51.3257 13.0609 50.4016 12.89 49.4775 12.7381C48.5787 12.5925 47.6798 12.4596 46.7684 12.3456C45.7556 12.219 44.7302 12.1051 43.7048 12.0228C42.8883 11.9532 42.0654 11.8962 41.2426 11.8519C40.1855 11.795 39.1222 11.7633 38.0588 11.7507C37.8246 11.7507 37.5904 11.7507 37.3498 11.7507C37.1853 11.7507 37.0144 11.7507 36.8498 11.7507C36.4511 11.7507 36.0586 11.757 35.6599 11.7696C34.5965 11.795 33.5331 11.8393 32.4824 11.9089C31.6532 11.9595 30.824 12.0355 30.0011 12.1114C28.9821 12.2127 27.9694 12.333 26.9629 12.4722C26.0388 12.5988 25.121 12.7507 24.2032 12.9153C23.2918 13.0735 22.3929 13.2571 21.4941 13.4533C21.7157 15.2446 22.0194 17.0169 22.3992 18.7576C22.4119 18.8145 22.4246 18.8715 22.4372 18.9285C22.836 20.7514 23.3107 22.5364 23.8614 24.296C24.1019 25.0746 24.3614 25.8405 24.6336 26.6063C24.9881 27.6001 25.3679 28.5875 25.773 29.5623C26.216 30.6383 26.6971 31.7017 27.1971 32.7461C27.5199 33.417 27.8617 34.0817 28.2035 34.74C28.7985 35.873 29.4315 36.9806 30.0898 38.0693C30.4569 38.6833 30.843 39.2846 31.2355 39.8796C31.9001 40.8924 32.59 41.8861 33.3116 42.8609C33.8686 43.6141 34.4446 44.361 35.0396 45.0889C35.6282 45.8105 36.2295 46.5258 36.8498 47.222H36.8562C37.4892 46.5194 38.1031 45.7915 38.7044 45.0509C39.2867 44.3357 39.8501 43.6078 40.4008 42.8609C41.1477 41.8481 41.8693 40.8227 42.5529 39.7657C42.92 39.2023 43.2744 38.639 43.6225 38.0693C44.3125 36.93 44.9707 35.7717 45.5847 34.588C45.9012 33.9804 46.2177 33.3601 46.5152 32.7398C47.0469 31.6384 47.547 30.5181 48.0154 29.3851C49.1927 29.6066 50.351 29.8598 51.503 30.151C52.1613 30.3219 52.8196 30.4991 53.4652 30.689C53.3006 31.1067 53.1297 31.5308 52.9524 31.9422C52.4018 33.2525 51.8132 34.5374 51.1865 35.8033C50.927 36.3287 50.6612 36.8477 50.389 37.3668C49.775 38.5377 49.123 39.6834 48.4394 40.8164C48.1292 41.3291 47.8191 41.8292 47.4963 42.3355C46.7494 43.5065 45.9645 44.6522 45.148 45.7662C44.8632 46.1586 44.572 46.5511 44.2745 46.9372C43.2681 48.2537 42.2237 49.5323 41.1224 50.7666C40.9894 50.9185 40.8565 51.0641 40.7236 51.2097C39.4893 52.5832 38.1981 53.9125 36.8562 55.1784C36.8562 55.1784 36.8562 55.1784 36.8498 55.1847V55.1721C35.508 53.9061 34.2167 52.5832 32.9824 51.2097C32.8812 51.0958 32.7799 50.9882 32.6786 50.8679C31.5456 49.5956 30.4633 48.2791 29.4315 46.9308C29.1847 46.6017 28.9314 46.2726 28.6909 45.9371C27.8301 44.7598 27.0009 43.5635 26.2097 42.3292C25.9375 41.8988 25.6654 41.4684 25.3995 41.0253C24.6716 39.829 23.9753 38.6074 23.3171 37.3604C23.0892 36.9237 22.8613 36.4806 22.6397 36.0375C21.9688 34.6956 21.3358 33.3221 20.7535 31.9296C20.6143 31.6004 20.4813 31.2713 20.3484 30.9358C19.6711 29.2521 19.0571 27.5368 18.5191 25.7898C18.5065 25.7645 18.5002 25.7329 18.4939 25.7012C17.9495 23.9416 17.4748 22.1566 17.0697 20.3337C16.9051 19.5931 16.7532 18.8525 16.614 18.1056C16.4114 17.0233 16.2341 15.9345 16.0886 14.8332C15.8354 12.9849 15.6518 11.1114 15.5506 9.21245C16.7975 8.858 18.0507 8.53518 19.3167 8.23768L19.323 8.24402ZM37.3498 28.366H37.4195C39.0716 28.366 40.7046 28.4419 42.3187 28.5812C41.6351 30.1256 40.8882 31.6384 40.078 33.1069C39.9197 33.3981 39.7615 33.6829 39.5969 33.9677C38.7424 35.4489 37.831 36.8857 36.8562 38.2782H36.8498V38.2656C35.8877 36.892 34.9826 35.4678 34.1407 34.012C33.9698 33.7145 33.7989 33.4107 33.6343 33.1069C32.8368 31.6637 32.1026 30.1826 31.4316 28.6698C33.033 28.5052 34.6535 28.4103 36.2865 28.3786C36.4701 28.3786 36.6536 28.3723 36.8435 28.3723C37.0081 28.3723 37.179 28.3723 37.3436 28.3723L37.3498 28.366ZM36.8498 27.2203V27.1823C36.8498 27.1823 36.8499 27.195 36.8562 27.2013C36.8562 27.2013 36.8562 27.214 36.8498 27.2203ZM65.8333 28.9293C65.77 29.1319 65.7067 29.3344 65.6371 29.537C65.1181 31.1827 64.5421 32.8031 63.9154 34.3981C63.8648 34.5311 63.8142 34.6703 63.7572 34.8032C63.1179 36.4236 62.4216 38.0124 61.6811 39.5758C61.6304 39.6834 61.5798 39.791 61.5292 39.8986C60.7759 41.4684 59.972 43.0128 59.1175 44.5192C59.0669 44.6205 59.0099 44.7155 58.9529 44.8104C58.0921 46.3232 57.1807 47.8043 56.2249 49.2475C56.1616 49.3488 56.0983 49.4437 56.0286 49.5387C55.0665 50.9818 54.0538 52.3933 52.9968 53.7732C52.9145 53.8808 52.8322 53.9947 52.7499 54.096C51.6929 55.4569 50.5979 56.7861 49.4522 58.0774C49.3256 58.223 49.199 58.3622 49.0724 58.5078C47.9457 59.7611 46.781 60.9827 45.5784 62.1663C45.3505 62.3942 45.1163 62.6221 44.8821 62.8436C43.7491 63.9323 42.5845 64.983 41.3819 66.0021C39.9198 67.249 38.4133 68.439 36.8625 69.5783C36.8625 69.5783 36.8625 69.5783 36.8562 69.5783V69.5657C35.3054 68.4263 33.799 67.2364 32.3431 65.9958C31.2355 65.0526 30.1594 64.0842 29.1087 63.0841C28.7859 62.7803 28.4694 62.4702 28.1466 62.1537C27.0389 61.0713 25.9755 59.9573 24.9374 58.8116C24.7159 58.5648 24.4944 58.3179 24.2728 58.071C23.2284 56.8937 22.222 55.6847 21.2472 54.4441C21.0763 54.2226 20.8991 53.9947 20.7219 53.7669C19.7598 52.5136 18.8357 51.2287 17.9495 49.9184C17.7976 49.6969 17.6456 49.469 17.5001 49.2475C16.6266 47.9309 15.7974 46.5891 15.0062 45.2155C14.8733 44.9876 14.734 44.7534 14.6074 44.5192C13.8289 43.1457 13.0947 41.7469 12.3984 40.3227C12.2781 40.0758 12.1578 39.829 12.0376 39.5821C11.3603 38.158 10.721 36.7085 10.1323 35.24C10.0184 34.9678 9.91087 34.6893 9.80327 34.4045C9.2336 32.9487 8.70191 31.4739 8.22085 29.9737C8.10692 29.6319 7.9993 29.2838 7.8917 28.9357C7.44862 27.4862 7.03717 26.0177 6.67638 24.5365C8.35374 23.6947 10.0691 22.9162 11.8224 22.2136C12.0123 23.0238 12.2085 23.8276 12.4237 24.6252C12.6959 25.6252 12.9808 26.619 13.2909 27.6064C13.6137 28.6445 13.9618 29.6762 14.3352 30.689C14.5948 31.4105 14.867 32.1258 15.1518 32.8347C15.5949 33.9551 16.0696 35.0628 16.576 36.1578C16.8418 36.7464 17.1203 37.3288 17.4052 37.9048C17.9559 39.0378 18.5382 40.1455 19.1458 41.2405C19.437 41.7722 19.7344 42.2975 20.0383 42.8166C20.6776 43.9053 21.3422 44.9813 22.0385 46.032C22.3803 46.5511 22.7284 47.0701 23.0829 47.5828C23.7855 48.5955 24.5133 49.583 25.2602 50.5577C25.697 51.1211 26.14 51.6844 26.5894 52.2351C27.311 53.1149 28.0453 53.9821 28.8048 54.8239C29.4188 55.5139 30.0455 56.1848 30.6911 56.8494C31.3367 57.5204 32.0014 58.1786 32.6723 58.8243C33.6977 59.8117 34.7484 60.7675 35.8308 61.6853C36.1726 61.9764 36.5144 62.2676 36.8625 62.5524C36.8625 62.5524 36.8625 62.5524 36.8689 62.5524C37.236 62.2486 37.5967 61.9448 37.9512 61.6346C39.0146 60.7232 40.0527 59.7864 41.0591 58.8116C41.7933 58.109 42.5148 57.3938 43.2111 56.6595C43.7998 56.0519 44.3695 55.4316 44.9328 54.8049C45.762 53.8808 46.5658 52.9377 47.3444 51.9756C47.7242 51.5072 48.104 51.0261 48.4774 50.5451C49.3003 49.4817 50.0915 48.393 50.851 47.2853C51.1422 46.8675 51.4207 46.4498 51.6992 46.0257C52.4587 44.8674 53.1867 43.6901 53.883 42.4938C54.1298 42.076 54.3639 41.6583 54.5981 41.2405C55.2628 40.0379 55.9021 38.8099 56.5034 37.5693C56.7249 37.1009 56.9465 36.6325 57.168 36.1578C57.7187 34.9488 58.2377 33.7272 58.7251 32.4866C58.9593 31.8916 59.1872 31.2903 59.4024 30.689C59.8138 29.556 60.1999 28.4103 60.5544 27.252C58.8454 26.5684 57.0921 25.9607 55.3071 25.429C55.1552 25.3847 55.0033 25.3404 54.8513 25.2961C53.2309 24.8277 51.5916 24.4226 49.9206 24.0871C49.1041 23.9226 48.2812 23.7707 47.452 23.6377C46.4329 23.4732 45.4075 23.3339 44.3758 23.22C43.2745 23.0997 42.1668 22.9984 41.0527 22.9351C40.2552 22.8908 39.4513 22.8592 38.6474 22.8402C38.217 22.8339 37.7866 22.8275 37.3562 22.8275C37.1916 22.8275 37.0208 22.8275 36.8562 22.8275C36.2675 22.8275 35.6788 22.8465 35.0902 22.8655C34.2737 22.8972 33.4571 22.9415 32.647 22.9984C31.5519 23.0807 30.4632 23.1883 29.3808 23.3213C28.9314 21.9477 28.5326 20.5552 28.1845 19.1373C28.0832 18.7322 27.9883 18.3272 27.8997 17.9221C28.1402 17.8904 28.3871 17.8524 28.6276 17.8271C30.229 17.6246 31.8431 17.4727 33.4698 17.384C33.8243 17.3587 34.1851 17.3461 34.5458 17.3334C35.3117 17.3018 36.0776 17.2828 36.8498 17.2764C37.0144 17.2764 37.1853 17.2764 37.3498 17.2764C37.9575 17.2764 38.5589 17.2828 39.1665 17.3017C39.5336 17.3081 39.8944 17.3207 40.2615 17.3397C41.8756 17.4094 43.477 17.5296 45.0594 17.7069C45.3252 17.7385 45.5848 17.7701 45.8506 17.8018C47.6989 18.0297 49.5155 18.3272 51.3131 18.7069C51.3131 18.7069 51.3258 18.7069 51.3321 18.7069C53.155 19.0804 54.9527 19.5361 56.7186 20.0552C57.2946 20.2261 57.8643 20.3969 58.4339 20.5868C59.6429 20.9793 60.8266 21.4034 62.0039 21.8528C63.7635 22.53 65.4852 23.2833 67.1752 24.0998C66.7828 25.7265 66.346 27.3406 65.8523 28.9293H65.8333Z" fill="black"/>
</svg>
