<svg width="18" height="18" viewBox="0 0 18 18" fill="none" xmlns="http://www.w3.org/2000/svg">
<path d="M17.709 9.12988C17.709 13.9463 13.7715 17.8486 8.99023 17.8486C4.17383 17.8486 0.271484 13.9463 0.271484 9.12988C0.271484 4.34863 4.17383 0.411133 8.99023 0.411133C13.7715 0.411133 17.709 4.34863 17.709 9.12988ZM7.9707 13.7705L14.4395 7.30176C14.6504 7.09082 14.6504 6.7041 14.4395 6.49316L13.6309 5.71973C13.4199 5.47363 13.0684 5.47363 12.8574 5.71973L7.58398 10.9932L5.08789 8.53223C4.87695 8.28613 4.52539 8.28613 4.31445 8.53223L3.50586 9.30566C3.29492 9.5166 3.29492 9.90332 3.50586 10.1143L7.16211 13.7705C7.37305 13.9814 7.75977 13.9814 7.9707 13.7705Z" fill="#106852"/>
</svg>
