<svg width="19" height="18" viewBox="0 0 19 18" fill="none" xmlns="http://www.w3.org/2000/svg">
<path d="M9.39941 0.28125C14.2158 0.28125 18.1182 4.18359 18.1182 9C18.1182 13.8164 14.2158 17.7188 9.39941 17.7188C4.58301 17.7188 0.680664 13.8164 0.680664 9C0.680664 4.18359 4.58301 0.28125 9.39941 0.28125ZM12.6338 11.2852C12.7041 11.2148 12.7744 11.0742 12.7744 10.9336C12.7744 10.7578 12.6689 10.6172 12.5635 10.5117L10.5244 9V3.9375C10.5244 3.65625 10.2432 3.375 9.96191 3.375H8.83691C8.52051 3.375 8.27441 3.65625 8.27441 3.9375V9.42188C8.27441 9.87891 8.4502 10.2656 8.80176 10.5117L11.1572 12.2695C11.2275 12.3398 11.3682 12.4102 11.4736 12.4102C11.6846 12.4102 11.8252 12.3047 11.9307 12.1641L12.6338 11.2852Z" fill="#CDCDCD"/>
</svg>
