<svg width="25" height="25" viewBox="0 0 25 25" fill="none" xmlns="http://www.w3.org/2000/svg">
<path d="M12.4902 1.20312C8.22461 1.20312 4.70898 4.67188 4.70898 8.98438C4.70898 15.125 11.6465 23.1875 11.9746 23.5625L12.4902 24.1719L13.0059 23.5625C13.334 23.1875 20.2715 15.125 20.2715 8.98438C20.2715 4.67188 16.7559 1.20312 12.4902 1.20312ZM12.4902 21.9688C10.8496 19.9531 6.11523 13.6719 6.11523 8.98438C6.11523 5.46875 8.97461 2.60938 12.4902 2.60938C16.0059 2.60938 18.8652 5.46875 18.8652 8.98438C18.8652 13.6719 14.1309 19.9531 12.4902 21.9688ZM12.4902 4.95312C10.1465 4.95312 8.27148 6.82812 8.27148 9.17188C8.27148 11.5156 10.1465 13.3906 12.4902 13.3906C14.834 13.3906 16.709 11.5156 16.709 9.17188C16.709 6.82812 14.834 4.95312 12.4902 4.95312ZM12.4902 11.9844C10.9434 11.9844 9.67773 10.7188 9.67773 9.17188C9.67773 7.625 10.9434 6.35938 12.4902 6.35938C14.0371 6.35938 15.3027 7.625 15.3027 9.17188C15.3027 10.7188 14.0371 11.9844 12.4902 11.9844Z" fill="currentColor"/>
</svg>
