<svg width="25" height="25" viewBox="0 0 25 25" fill="none" xmlns="http://www.w3.org/2000/svg">
<path d="M18.1152 0.5H6.86523C5.69336 0.5 4.70898 1.4375 4.70898 2.60938V22.3906C4.70898 23.5625 5.69336 24.5 6.86523 24.5H18.1152C19.2871 24.5 20.2715 23.5625 20.2715 22.3906V2.60938C20.2715 1.4375 19.2871 0.5 18.1152 0.5ZM6.86523 1.90625H18.1152C18.5371 1.90625 18.8652 2.23438 18.8652 2.60938V4.71875H6.11523V2.60938C6.11523 2.23438 6.44336 1.90625 6.86523 1.90625ZM18.8652 6.125V17.4219H6.11523V6.125H18.8652ZM18.1152 23.0938H6.86523C6.44336 23.0938 6.11523 22.7656 6.11523 22.3906V18.875H18.8652V22.3906C18.8652 22.7656 18.5371 23.0938 18.1152 23.0938ZM13.1934 20.9844C13.1934 21.3594 12.8652 21.6875 12.4902 21.6875C12.1152 21.6875 11.7871 21.3594 11.7871 20.9844C11.7871 20.5625 12.1152 20.2812 12.4902 20.2812C12.8652 20.2812 13.1934 20.5625 13.1934 20.9844Z" fill="white"/>
</svg>
