<svg width="19" height="19" viewBox="0 0 19 19" fill="none" xmlns="http://www.w3.org/2000/svg">
<path d="M17.9629 13.4766C18.2441 13.6172 18.4551 13.9336 18.4551 14.2852C18.4551 14.3203 18.4551 14.3906 18.4551 14.4609L17.6113 18.1172C17.5059 18.5039 17.1895 18.75 16.8027 18.75C7.76758 18.75 0.490234 11.4727 0.490234 2.4375C0.490234 2.05078 0.736328 1.73438 1.12305 1.62891L4.7793 0.785156C4.84961 0.785156 4.91992 0.75 4.95508 0.75C5.30664 0.75 5.62305 0.960938 5.76367 1.27734L7.45117 5.21484C7.48633 5.32031 7.52148 5.42578 7.52148 5.53125C7.52148 5.8125 7.38086 6.05859 7.20508 6.19922L5.06055 7.95703C6.36133 10.6992 8.54102 12.8789 11.2832 14.1797L13.041 12.0352C13.1816 11.8594 13.4277 11.7188 13.6738 11.7188C13.8145 11.7188 13.9199 11.7539 14.0254 11.7891L17.9629 13.4766Z" fill="#3e91d8"/>
</svg>
