<svg width="18" height="18" viewBox="0 0 18 18" fill="none" xmlns="http://www.w3.org/2000/svg">
<path d="M9.20898 0.28125C13.9902 0.28125 17.9277 4.21875 17.9277 9C17.9277 13.8164 13.9902 17.7188 9.20898 17.7188C4.39258 17.7188 0.490234 13.8164 0.490234 9C0.490234 4.21875 4.39258 0.28125 9.20898 0.28125ZM12.0918 12.8672C12.373 12.5859 12.584 12.1641 12.584 11.707C12.584 11.4258 12.4434 11.1445 12.2676 10.9688L11.7754 10.4766C11.5645 10.2656 11.2832 10.125 10.9668 10.125H8.64648C8.29492 9.98438 7.87305 9 7.52148 9C7.13477 9 6.7832 8.92969 6.43164 8.75391L6.04492 8.57812C5.9043 8.50781 5.83398 8.36719 5.83398 8.19141C5.83398 8.01562 5.93945 7.83984 6.11523 7.80469L7.20508 7.41797C7.24023 7.41797 7.31055 7.41797 7.38086 7.41797C7.52148 7.41797 7.66211 7.45312 7.73242 7.52344L8.08398 7.83984C8.11914 7.875 8.18945 7.875 8.25977 7.875H8.4707C8.68164 7.875 8.78711 7.66406 8.7168 7.48828L8.1543 6.39844C8.1543 6.36328 8.11914 6.29297 8.11914 6.25781C8.11914 6.1875 8.1543 6.11719 8.22461 6.04688L8.57617 5.73047C8.61133 5.66016 8.68164 5.625 8.75195 5.625H9.06836C9.13867 5.625 9.20898 5.625 9.2793 5.55469L9.56055 5.27344C9.66602 5.16797 9.66602 4.99219 9.56055 4.88672L9.38477 4.71094C9.2793 4.60547 9.2793 4.42969 9.38477 4.32422L9.77148 3.9375L9.91211 3.79688C10.123 3.58594 10.123 3.19922 9.91211 2.98828L8.92773 2.00391C8.64648 2.00391 8.33008 2.03906 8.08398 2.07422V2.49609C8.08398 2.91797 7.62695 3.16406 7.24023 2.98828L6.39648 2.56641C4.7793 3.26953 3.51367 4.53516 2.77539 6.15234C3.12695 6.67969 3.6543 7.45312 4.00586 7.94531C4.18164 8.22656 4.39258 8.4375 4.63867 8.68359H4.67383C4.99023 9 5.37695 9.24609 5.76367 9.45703C6.25586 9.70312 6.99414 10.0898 7.48633 10.3711C7.83789 10.582 8.08398 10.9688 8.08398 11.3555V12.4805C8.08398 12.7969 8.18945 13.0781 8.40039 13.2891C8.92773 13.8164 9.24414 14.625 9.20898 15.082V16.0312C9.70117 16.0312 10.1934 15.9961 10.6855 15.8906L11.3184 14.2383C11.3887 14.0273 11.4238 13.8516 11.459 13.6406C11.4941 13.5 11.5645 13.3594 11.6699 13.2539C11.8105 13.1484 11.9512 13.0078 12.0918 12.8672ZM15.1504 9.66797L16.1699 9.91406C16.2051 9.63281 16.2402 9.31641 16.2402 9C16.2402 7.875 15.959 6.82031 15.4668 5.87109L15.0098 6.11719C14.8691 6.1875 14.7637 6.25781 14.6934 6.39844L13.9902 7.41797C13.9199 7.55859 13.8496 7.73438 13.8496 7.91016C13.8496 8.05078 13.9199 8.22656 13.9902 8.36719L14.623 9.31641C14.7637 9.49219 14.9395 9.59766 15.1504 9.66797Z" fill="#CDCDCD"/>
</svg>
