<svg width="15" height="15" viewBox="0 0 15 15" fill="none" xmlns="http://www.w3.org/2000/svg">
<path d="M14.6613 12.8633C14.9074 13.1367 14.9074 13.5469 14.634 13.793L13.8684 14.5586C13.6223 14.832 13.2121 14.832 12.9387 14.5586L10.2316 11.8516C10.0949 11.7148 10.0402 11.5508 10.0402 11.3867V10.9219C9.05586 11.6875 7.85273 12.125 6.54023 12.125C3.3957 12.125 0.852735 9.58203 0.852735 6.4375C0.852735 3.32031 3.3957 0.75 6.54023 0.75C9.65742 0.75 12.2277 3.32031 12.2277 6.4375C12.2277 7.77734 11.7629 8.98047 11.0246 9.9375H11.4621C11.6262 9.9375 11.7902 10.0195 11.927 10.1289L14.6613 12.8633ZM6.54023 9.9375C8.4543 9.9375 10.0402 8.37891 10.0402 6.4375C10.0402 4.52344 8.4543 2.9375 6.54023 2.9375C4.59883 2.9375 3.04023 4.52344 3.04023 6.4375C3.04023 8.37891 4.59883 9.9375 6.54023 9.9375Z" fill="#8B939B"/>
</svg>
